 <svg version="1.0" xmlns="http://www.w3.org/2000/svg" width="700.000000pt" height="548.000000pt" viewBox="0 0 700.000000 548.000000" preserveAspectRatio="xMidYMid meet">
<metadata>
Created by potrace 1.12, written by Peter Selinger 2001-2015
</metadata>
<g transform="translate(0.000000,548.000000) scale(0.100000,-0.100000)" fill="#000000" stroke="none">
<path d="M3431 5129 c-78 -35 -116 -51 -136 -59 -11 -4 -46 -20 -78 -34 -32
-14 -61 -26 -66 -26 -4 0 -21 -6 -37 -14 -16 -8 -85 -38 -154 -66 -69 -29
-138 -58 -155 -65 -32 -14 -98 -41 -130 -55 -11 -4 -36 -15 -55 -23 -19 -8
-91 -38 -160 -67 -135 -56 -162 -67 -230 -98 -25 -11 -119 -50 -210 -87 -160
-65 -196 -81 -308 -131 -29 -13 -56 -24 -61 -24 -4 0 -21 -6 -37 -14 -16 -8
-85 -38 -154 -66 -132 -55 -158 -66 -230 -98 -25 -10 -135 -56 -245 -102 -110
-45 -222 -92 -250 -105 -27 -12 -124 -53 -215 -90 -91 -37 -171 -73 -178 -79
-12 -11 34 -135 141 -379 15 -35 11 -36 229 57 95 41 279 118 408 171 129 53
253 105 275 115 22 10 157 66 300 125 245 102 282 117 388 164 23 10 116 49
207 86 91 37 185 76 210 87 79 35 101 45 289 122 100 42 199 83 220 92 20 9
45 20 56 24 11 4 40 17 65 28 25 11 118 50 208 87 l162 67 188 -78 c103 -42
207 -86 232 -97 25 -10 61 -26 80 -34 19 -8 45 -19 58 -24 12 -5 32 -13 45
-18 12 -5 38 -16 58 -25 21 -9 120 -50 220 -92 101 -41 200 -82 219 -91 58
-25 69 -30 238 -98 89 -36 184 -75 210 -86 26 -12 56 -25 67 -29 11 -4 42 -18
68 -29 27 -12 82 -35 122 -51 70 -28 104 -43 223 -96 29 -13 56 -24 61 -24 4
0 21 -6 37 -14 16 -8 85 -38 154 -66 69 -29 143 -60 165 -70 92 -41 546 -230
553 -230 7 0 17 21 47 95 9 22 22 54 30 70 66 148 94 229 84 241 -6 8 -16 14
-21 14 -5 0 -28 9 -51 19 -23 11 -109 47 -192 81 -150 62 -263 109 -320 135
-16 7 -82 35 -145 60 -63 26 -135 56 -160 67 -70 31 -96 42 -230 98 -69 28
-138 58 -154 66 -16 8 -33 14 -37 14 -9 0 -96 38 -156 68 l-33 17 0 337 0 338
-220 0 -220 0 0 -235 c0 -197 -2 -237 -15 -241 -12 -5 -125 37 -265 98 -25 11
-54 24 -65 28 -11 4 -46 20 -78 34 -32 14 -61 26 -66 26 -4 0 -21 6 -37 14
-16 8 -85 38 -154 66 -69 29 -140 58 -157 66 -30 13 -73 31 -128 54 -11 4 -36
15 -55 23 -204 88 -200 87 -269 56z"></path>
<path d="M2055 3168 c-3 -7 -4 -389 -3 -848 l3 -835 112 -3 113 -3 2 263 3
263 265 3 265 2 24 -37 c14 -21 40 -63 60 -93 19 -30 47 -74 63 -97 15 -23 28
-44 28 -48 0 -4 17 -32 38 -63 21 -32 60 -90 85 -129 l47 -73 119 0 c66 0 122
4 125 9 3 4 -43 78 -102 164 -234 342 -272 399 -267 408 3 4 41 26 83 49 81
42 103 60 153 125 143 185 165 457 55 673 -52 104 -231 231 -356 254 -152 29
-906 41 -915 16z m730 -198 c197 -23 304 -87 362 -218 21 -47 24 -71 24 -158
0 -84 -4 -110 -22 -150 -49 -106 -113 -161 -239 -204 -59 -20 -89 -23 -339
-27 -225 -5 -275 -3 -282 8 -13 20 -11 716 1 740 10 18 23 19 208 19 108 0
238 -5 287 -10z"></path>
<path d="M3826 2929 c-4 -140 -6 -524 -4 -854 l3 -600 112 -3 113 -3 2 268 3
268 295 6 c162 3 319 11 349 17 141 29 316 153 371 262 42 83 57 132 70 227
33 249 -74 478 -271 574 -41 20 -94 42 -119 49 -25 6 -61 16 -80 22 -20 6
-203 12 -436 15 l-402 5 -6 -253z m819 21 c121 -29 202 -92 247 -188 26 -57
29 -74 29 -167 0 -93 -3 -110 -29 -167 -44 -97 -122 -159 -245 -194 -56 -16
-522 -32 -571 -20 l-26 6 0 369 c0 202 3 371 8 375 11 13 530 0 587 -14z"></path>
<path d="M1150 1750 l0 -1420 2350 0 2350 0 0 1420 0 1420 -220 0 -220 0 -2
-1187 -3 -1188 -1905 0 -1905 0 -3 1188 -2 1187 -220 0 -220 0 0 -1420z"></path>
</g>
</svg>